<svg xmlns="http://www.w3.org/2000/svg" viewBox="0 0 91.71 91.72"><defs><style>.a{fill:#fff;}</style></defs><path class="a" d="M76.72,59.87h91.63c.09.33.11,20.67,0,21.14H159.1V68.8c-.33-.09-72.19-.13-72.88,0-.08.3-.1,73.36,0,73.88h72.88v-13.5c.33-.11,8.57-.14,9.31,0,0,.15,0,.31,0,.48v18c0,1.33,0,2.66,0,4H76.72Z" transform="translate(-76.72 -59.87)"/><path class="a" d="M134.39,109.64V129c-.31.1-8.89.13-9.45,0V81.06h9.44c0,.67,0,1.34,0,2v18.19c1.2,0,2.38,0,3.55,0H159v8.36Z" transform="translate(-76.72 -59.87)"/><path class="a" d="M110.74,129v-9h9.38c.07.3.1,8.4,0,9Z" transform="translate(-76.72 -59.87)"/></svg>